<svg width="60" height="80" viewBox="0 0 60 80" xmlns="http://www.w3.org/2000/svg">
  <!-- Base -->
  <ellipse cx="30" cy="75" rx="8" ry="3" fill="#f0f0f0" stroke="#d0d0d0" stroke-width="0.5"/>
  
  <!-- Main pole body -->
  <rect x="22" y="15" width="16" height="55" fill="none" stroke="#333" stroke-width="0.5"/>
  
  <!-- Spiral stripes -->
  <path d="M 22 15 Q 30 20 38 15 Q 30 25 38 30 Q 30 35 38 40 Q 30 45 38 50 Q 30 55 38 60 Q 30 65 38 70" 
        stroke="#dc2626" stroke-width="3" fill="none"/>
  <path d="M 22 20 Q 30 25 38 20 Q 30 30 38 35 Q 30 40 38 45 Q 30 50 38 55 Q 30 60 38 65 Q 30 70 38 75" 
        stroke="#ffffff" stroke-width="3" fill="none"/>
  <path d="M 22 25 Q 30 30 38 25 Q 30 35 38 40 Q 30 45 38 50 Q 30 55 38 60 Q 30 65 38 70 Q 30 75 38 80" 
        stroke="#1e40af" stroke-width="3" fill="none"/>
  
  <!-- Top dome -->
  <ellipse cx="30" cy="15" rx="8" ry="4" fill="#f8f8f8" stroke="#d0d0d0" stroke-width="0.5"/>
  
  <!-- Top cap -->
  <ellipse cx="30" cy="12" rx="6" ry="2" fill="#e0e0e0" stroke="#c0c0c0" stroke-width="0.5"/>
</svg>
